<?xml version="1.0" encoding="UTF-8"?>
<svg version="1.1" viewBox="0 0 800 762.65" xml:space="preserve" xmlns="http://www.w3.org/2000/svg" xmlns:cc="http://creativecommons.org/ns#" xmlns:dc="http://purl.org/dc/elements/1.1/" xmlns:rdf="http://www.w3.org/1999/02/22-rdf-syntax-ns#"><metadata><rdf:RDF><cc:Work rdf:about=""><dc:format>image/svg+xml</dc:format><dc:type rdf:resource="http://purl.org/dc/dcmitype/StillImage"/><dc:title/></cc:Work></rdf:RDF></metadata><style type="text/css">
	.st0{fill:none;stroke:#3CC3DB;stroke-width:12.5785;stroke-linejoin:round;stroke-miterlimit:10;}
	.st1{fill:#3CC3DB;}
	.st2{fill:#006373;}
	.st3{fill:#006C77;}
	.st4{fill:#00555E;}
	.st5{fill:#014C64;}
	.st6{fill:#0297AF;}
	.st7{fill:#00A5BF;}
	.st8{fill:#007E92;}
	.st9{fill:#37B2C8;}
	.st10{fill:#2C94A6;}
	.st11{fill:#32A3B8;}
	.st12{fill:#4CC4D4;}
	.st13{fill:none;stroke:#3CC3DB;stroke-width:5.5114;stroke-linejoin:round;stroke-miterlimit:10;}
	.st14{fill:none;stroke:#3CC3DB;stroke-width:11.7923;stroke-linejoin:round;stroke-miterlimit:10;}
	.st15{fill:none;stroke:#3CC3DB;stroke-width:11.5432;stroke-linejoin:round;stroke-miterlimit:10;}
	.st16{fill:none;stroke:#4294D1;stroke-width:5.511;stroke-linecap:round;stroke-linejoin:round;stroke-miterlimit:10;}
	.st17{fill:none;stroke:#3DA7D7;stroke-width:5.511;stroke-linecap:round;stroke-linejoin:round;stroke-miterlimit:10;}
	.st18{fill:none;stroke:#3CC3DB;stroke-width:5.511;stroke-linecap:round;stroke-linejoin:round;stroke-miterlimit:10;}
	.st19{fill:none;stroke:#4294D1;stroke-width:11.792;stroke-linecap:round;stroke-linejoin:round;stroke-miterlimit:10;}
	.st20{fill:none;stroke:#3DA7D7;stroke-width:11.792;stroke-linecap:round;stroke-linejoin:round;stroke-miterlimit:10;}
	.st21{fill:none;stroke:#3CC3DB;stroke-width:11.792;stroke-linecap:round;stroke-linejoin:round;stroke-miterlimit:10;}
	.st22{fill:none;stroke:#4294D1;stroke-width:11.543;stroke-linecap:round;stroke-linejoin:round;stroke-miterlimit:10;}
	.st23{fill:none;stroke:#3DA7D7;stroke-width:11.543;stroke-linecap:round;stroke-linejoin:round;stroke-miterlimit:10;}
	.st24{fill:none;stroke:#3CC3DB;stroke-width:11.543;stroke-linecap:round;stroke-linejoin:round;stroke-miterlimit:10;}
	.st25{fill:none;stroke:#4294D1;stroke-width:12.579;stroke-linecap:round;stroke-linejoin:round;stroke-miterlimit:10;}
	.st26{fill:none;stroke:#3DA7D7;stroke-width:12.579;stroke-linecap:round;stroke-linejoin:round;stroke-miterlimit:10;}
	.st27{fill:none;stroke:#3CC3DB;stroke-width:12.579;stroke-linecap:round;stroke-linejoin:round;stroke-miterlimit:10;}
	.st28{fill:none;stroke:#3CC3DB;stroke-width:9;stroke-linejoin:round;stroke-miterlimit:10;}
	.st29{fill:none;stroke:#3CC3DB;stroke-width:20.5369;stroke-linejoin:round;stroke-miterlimit:10;}
	.st30{fill:none;stroke:#3CC3DB;stroke-width:16;stroke-linejoin:round;stroke-miterlimit:10;}
	.st31{fill:none;stroke:#4294D1;stroke-width:9;stroke-linecap:round;stroke-linejoin:round;stroke-miterlimit:10;}
	.st32{fill:none;stroke:#3DA7D7;stroke-width:9;stroke-linecap:round;stroke-linejoin:round;stroke-miterlimit:10;}
	.st33{fill:none;stroke:#3CC3DB;stroke-width:9;stroke-linecap:round;stroke-linejoin:round;stroke-miterlimit:10;}
	.st34{fill:none;stroke:#4294D1;stroke-width:20.537;stroke-linecap:round;stroke-linejoin:round;stroke-miterlimit:10;}
	.st35{fill:none;stroke:#3DA7D7;stroke-width:20.537;stroke-linecap:round;stroke-linejoin:round;stroke-miterlimit:10;}
	.st36{fill:none;stroke:#3CC3DB;stroke-width:20.537;stroke-linecap:round;stroke-linejoin:round;stroke-miterlimit:10;}
	.st37{fill:none;stroke:#4294D1;stroke-width:16;stroke-linecap:round;stroke-linejoin:round;stroke-miterlimit:10;}
	.st38{fill:none;stroke:#3DA7D7;stroke-width:16;stroke-linecap:round;stroke-linejoin:round;stroke-miterlimit:10;}
	.st39{fill:none;stroke:#3CC3DB;stroke-width:16;stroke-linecap:round;stroke-linejoin:round;stroke-miterlimit:10;}
	.st40{fill:none;stroke:#4294D1;stroke-width:3;stroke-linecap:round;stroke-linejoin:round;stroke-miterlimit:10;}
	.st41{fill:none;stroke:#3DA7D7;stroke-width:3;stroke-linecap:round;stroke-linejoin:round;stroke-miterlimit:10;}
	.st42{fill:none;stroke:#3CC3DB;stroke-width:3;stroke-linecap:round;stroke-linejoin:round;stroke-miterlimit:10;}
	.st43{fill:none;stroke:#4294D1;stroke-width:6.913;stroke-linecap:round;stroke-linejoin:round;stroke-miterlimit:10;}
	.st44{fill:none;stroke:#3DA7D7;stroke-width:6.913;stroke-linecap:round;stroke-linejoin:round;stroke-miterlimit:10;}
	.st45{fill:none;stroke:#3CC3DB;stroke-width:6.913;stroke-linecap:round;stroke-linejoin:round;stroke-miterlimit:10;}
	.st46{fill:none;stroke:#4294D1;stroke-width:6.4809;stroke-linecap:round;stroke-linejoin:round;stroke-miterlimit:10;}
	.st47{fill:none;stroke:#3DA7D7;stroke-width:6.4809;stroke-linecap:round;stroke-linejoin:round;stroke-miterlimit:10;}
	.st48{fill:none;stroke:#3CC3DB;stroke-width:6.4809;stroke-linecap:round;stroke-linejoin:round;stroke-miterlimit:10;}
	.st49{fill:none;stroke:#4294D1;stroke-width:6.3442;stroke-linecap:round;stroke-linejoin:round;stroke-miterlimit:10;}
	.st50{fill:none;stroke:#3DA7D7;stroke-width:6.3442;stroke-linecap:round;stroke-linejoin:round;stroke-miterlimit:10;}
	.st51{fill:none;stroke:#3CC3DB;stroke-width:6.3442;stroke-linecap:round;stroke-linejoin:round;stroke-miterlimit:10;}
</style><g transform="translate(-140 -158.67)"><rect class="st2" transform="matrix(.5 -.866 .866 .5 62.796 858.51)" x="705.11" y="305.09" width="139.57" height="139.57" fill="#006373"/><polygon class="st3" points="609.78 279.55 540 400.42 679.57 400.42 749.35 279.55" fill="#006c77"/><polygon class="st4" points="800.43 470.2 870.22 591.07 940 470.2 870.22 349.33" fill="#00555e"/><polygon class="st5" points="870.22 730.63 940 609.76 940 470.2 870.22 591.07" fill="#014c64"/><rect class="st6" transform="matrix(.866 -.5 .5 .866 -58.078 291.26)" x="444.67" y="184.22" width="139.57" height="139.57" fill="#0297af"/><polygon class="st7" points="349.35 349.35 419.14 470.22 488.92 349.35 419.13 228.46" fill="#00a5bf"/><polygon class="st8" points="609.78 279.55 749.35 279.55 679.57 158.68 540 158.68" fill="#007e92"/><polygon class="st8" points="419.13 470.2 540 400.42 609.78 279.55 488.92 349.33" fill="#007e92"/><polygon class="st2" points="870.22 349.33 800.43 228.46 679.57 158.68 749.35 279.55" fill="#006373"/><rect class="st9" x="209.78" y="349.37" width="139.57" height="139.57" fill="#37b2c8"/><polygon class="st1" points="279.57 609.8 419.13 609.8 349.35 488.93 209.78 488.93" fill="#3cc3db"/><polygon class="st10" points="349.35 349.33 419.13 228.46 279.57 228.46 209.78 349.33" fill="#2c94a6"/><polygon class="st11" points="419.14 609.78 419.14 470.22 349.36 349.35 349.36 488.92" fill="#32a3b8"/><polygon class="st8" points="540 158.68 400.43 158.68 279.57 228.46 419.13 228.46" fill="#007e92"/><polygon class="st12" points="540 679.58 419.13 609.8 279.57 609.8 400.43 679.58" fill="#4cc4d4"/><rect class="st2" transform="matrix(.5 -.866 .866 .5 -458.1 616.8)" x="235.32" y="635.34" width="139.57" height="139.57" fill="#006373"/><polygon class="st3" points="470.22 800.45 540 679.58 400.43 679.58 330.65 800.45" fill="#006c77"/><polygon class="st4" points="279.57 609.8 209.78 488.93 140 609.8 209.78 730.67" fill="#00555e"/><polyline class="st5" points="140 470.24 140 609.8 209.78 488.93 209.78 349.37" fill="#014c64"/><rect class="st6" transform="matrix(.866 -.5 .5 .866 -337.23 393.43)" x="495.76" y="756.21" width="139.57" height="139.57" fill="#0297af"/><polygon class="st7" points="730.67 730.65 660.88 609.78 591.1 730.65 660.89 851.54" fill="#00a5bf"/><polygon class="st8" points="470.22 800.45 330.65 800.45 400.43 921.32 540 921.32" fill="#007e92"/><polygon class="st8" points="660.88 609.78 540.01 679.57 470.23 800.43 591.1 730.65" fill="#007e92"/><polygon class="st2" points="209.78 730.67 279.57 851.54 400.43 921.32 330.65 800.45" fill="#006373"/><rect class="st9" x="730.65" y="591.07" width="139.57" height="139.57" fill="#37b2c8"/><polygon class="st1" points="800.43 470.2 660.87 470.2 730.65 591.07 870.22 591.07" fill="#3cc3db"/><polygon class="st10" points="730.65 730.63 660.87 851.5 800.43 851.5 870.22 730.63" fill="#2c94a6"/><polygon class="st11" points="660.88 470.22 660.88 609.78 730.66 730.65 730.66 591.08" fill="#32a3b8"/><polygon class="st8" points="540 921.32 679.57 921.28 800.43 851.5 660.87 851.5" fill="#007e92"/><polygon class="st12" points="540 400.42 660.87 470.2 800.43 470.2 679.57 400.42" fill="#4cc4d4"/></g></svg>
