<?xml version="1.0" encoding="UTF-8"?>
<svg version="1.1" viewBox="0 0 802.16 341.35" xml:space="preserve" xmlns="http://www.w3.org/2000/svg" xmlns:cc="http://creativecommons.org/ns#" xmlns:dc="http://purl.org/dc/elements/1.1/" xmlns:rdf="http://www.w3.org/1999/02/22-rdf-syntax-ns#"><metadata><rdf:RDF><cc:Work rdf:about=""><dc:format>image/svg+xml</dc:format><dc:type rdf:resource="http://purl.org/dc/dcmitype/StillImage"/><dc:title/></cc:Work></rdf:RDF></metadata><style type="text/css">
	.st0{fill:none;stroke:#4294D1;stroke-width:4.3151;stroke-linecap:round;stroke-linejoin:round;stroke-miterlimit:10;}
	.st1{fill:none;stroke:#3DA7D7;stroke-width:4.3151;stroke-linecap:round;stroke-linejoin:round;stroke-miterlimit:10;}
	.st2{fill:none;stroke:#3CC3DB;stroke-width:4.3151;stroke-linecap:round;stroke-linejoin:round;stroke-miterlimit:10;}
	.st3{fill:#3CC3DB;}
	.st4{fill:none;stroke:#4294D1;stroke-width:9.7651;stroke-linecap:round;stroke-linejoin:round;stroke-miterlimit:10;}
	.st5{fill:none;stroke:#3DA7D7;stroke-width:9.7651;stroke-linecap:round;stroke-linejoin:round;stroke-miterlimit:10;}
	.st6{fill:none;stroke:#3CC3DB;stroke-width:9.7651;stroke-linecap:round;stroke-linejoin:round;stroke-miterlimit:10;}
	.st7{fill:#006373;}
	.st8{fill:#006C77;}
	.st9{fill:#00555E;}
	.st10{fill:#014C64;}
	.st11{fill:#0297AF;}
	.st12{fill:#00A5BF;}
	.st13{fill:#007E92;}
	.st14{fill:#37B2C8;}
	.st15{fill:#2C94A6;}
	.st16{fill:#32A3B8;}
	.st17{fill:#4CC4D4;}
	.st18{fill:none;stroke:#4294D1;stroke-width:5.0309;stroke-linecap:round;stroke-linejoin:round;stroke-miterlimit:10;}
	.st19{fill:none;stroke:#3DA7D7;stroke-width:5.0309;stroke-linecap:round;stroke-linejoin:round;stroke-miterlimit:10;}
	.st20{fill:none;stroke:#3CC3DB;stroke-width:5.0309;stroke-linecap:round;stroke-linejoin:round;stroke-miterlimit:10;}
	.st21{fill:none;stroke:#4294D1;stroke-width:5.03;stroke-linecap:round;stroke-linejoin:round;stroke-miterlimit:10;}
	.st22{fill:none;stroke:#3DA7D7;stroke-width:5.03;stroke-linecap:round;stroke-linejoin:round;stroke-miterlimit:10;}
	.st23{fill:none;stroke:#3CC3DB;stroke-width:5.03;stroke-linecap:round;stroke-linejoin:round;stroke-miterlimit:10;}
	.st24{fill:none;stroke:#4294D1;stroke-width:2.0617;stroke-linecap:round;stroke-linejoin:round;stroke-miterlimit:10;}
	.st25{fill:none;stroke:#3DA7D7;stroke-width:2.0617;stroke-linecap:round;stroke-linejoin:round;stroke-miterlimit:10;}
	.st26{fill:none;stroke:#3CC3DB;stroke-width:2.0617;stroke-linecap:round;stroke-linejoin:round;stroke-miterlimit:10;}
	.st27{fill:none;stroke:#4294D1;stroke-width:5.0306;stroke-linecap:round;stroke-linejoin:round;stroke-miterlimit:10;}
	.st28{fill:none;stroke:#3DA7D7;stroke-width:5.0306;stroke-linecap:round;stroke-linejoin:round;stroke-miterlimit:10;}
	.st29{fill:none;stroke:#3CC3DB;stroke-width:5.0306;stroke-linecap:round;stroke-linejoin:round;stroke-miterlimit:10;}
	.st30{fill:none;stroke:#4294D1;stroke-width:9.7645;stroke-linecap:round;stroke-linejoin:round;stroke-miterlimit:10;}
	.st31{fill:none;stroke:#3DA7D7;stroke-width:9.7645;stroke-linecap:round;stroke-linejoin:round;stroke-miterlimit:10;}
	.st32{fill:none;stroke:#3CC3DB;stroke-width:9.7645;stroke-linecap:round;stroke-linejoin:round;stroke-miterlimit:10;}
</style><g transform="translate(-137.84 -369.32)"><g fill="none" stroke-linecap="round" stroke-linejoin="round" stroke-miterlimit="10" stroke-width="4.3151"><g stroke="#4294d1"><rect class="st0" transform="matrix(.5004 -.8658 .8658 .5004 -424.22 490.55)" x="182.1" y="582.01" width="61.669" height="61.669"/><polygon class="st0" points="285.88 655 316.74 601.61 255.07 601.58 224.21 654.97"/><polygon class="st0" points="201.67 570.72 170.86 517.3 140 570.69 170.81 624.11"/><polygon class="st0" points="170.89 455.63 140.03 509.02 140 570.69 170.86 517.3"/></g><g stroke="#4294d1"><rect class="st0" transform="matrix(.5004 -.8658 .8658 .5004 -194.33 597.55)" x="389.77" y="436.32" width="61.669" height="61.669"/><polygon class="st0" points="347.65 425 316.8 478.39 378.46 478.42 409.32 425.03"/><polygon class="st0" points="431.87 509.28 462.68 562.7 493.54 509.31 462.72 455.89"/><polygon class="st0" points="462.65 624.37 493.51 570.98 493.54 509.31 462.68 562.7"/></g><g stroke="#3da7d7"><rect class="st1" transform="matrix(.8662 -.4996 .4996 .8662 -165.79 207.98)" x="274.71" y="382.79" width="61.669" height="61.669"/><polygon class="st1" points="232.56 455.72 263.38 509.14 294.23 455.75 263.42 402.33"/><polygon class="st1" points="347.66 424.93 409.33 424.96 378.52 371.54 316.85 371.51"/><polygon class="st1" points="263.38 509.14 316.8 478.33 347.65 424.94 294.23 455.75"/><polygon class="st1" points="462.72 455.82 431.91 402.4 378.52 371.54 409.33 424.96"/></g><g stroke="#3da7d7"><rect class="st1" transform="matrix(.8662 -.4996 .4996 .8662 -289.06 253)" x="297.16" y="635.54" width="61.669" height="61.669"/><polygon class="st1" points="400.97 624.28 370.16 570.86 339.3 624.25 370.11 677.67"/><polygon class="st1" points="285.88 655.07 224.21 655.04 255.02 708.46 316.69 708.49"/><polygon class="st1" points="370.16 570.86 316.74 601.67 285.88 655.06 339.3 624.25"/><polygon class="st1" points="170.82 624.18 201.63 677.6 255.02 708.46 224.21 655.04"/></g><g stroke="#3cc3db"><polygon class="st2" points="316.8 478.39 370.19 509.25 431.86 509.28 378.46 478.42"/><rect class="st2" x="400.99" y="562.63" width="61.669" height="61.669"/><polygon class="st2" points="431.86 509.22 370.19 509.19 401 562.61 462.67 562.64"/><polygon class="st2" points="400.98 624.29 370.12 677.68 431.79 677.71 462.64 624.31"/><polygon class="st2" points="370.19 509.19 370.16 570.86 400.97 624.28 401 562.61"/><polygon class="st2" points="316.7 708.49 378.37 708.52 431.79 677.71 370.12 677.68"/></g><g stroke="#3cc3db"><polygon class="st2" points="316.74 601.61 263.35 570.75 201.68 570.72 255.07 601.58"/><rect class="st2" x="170.88" y="455.7" width="61.669" height="61.669"/><polygon class="st2" points="201.68 570.78 263.35 570.81 232.54 517.39 170.87 517.36"/><polygon class="st2" points="232.56 455.71 263.42 402.32 201.75 402.29 170.89 455.69"/><polygon class="st2" points="263.35 570.81 263.38 509.14 232.56 455.72 232.54 517.39"/><polygon class="st2" points="316.84 371.51 255.17 371.48 201.75 402.29 263.42 402.32"/></g></g><g fill="#3cc3db"><path class="st3" d="m699.92 595.36v-99.086s-6.827 15.5-8.488 19.191l-35.796 79.895h-4.982l-35.796-79.895c-1.844-4.06-8.303-19.191-8.303-19.191v99.086h-5.905v-110.71h6.643l45.944 102.41 46.129-102.41h6.643v110.71h-6.089z"/><path class="st3" d="m781.31 595.36v-110.71h6.274v110.71h-6.274z"/><path class="st3" d="m940 595.36h-7.565l-35.981-52.034-35.796 52.034h-7.196l39.118-56.831-37.088-53.88h7.565l33.766 49.082 33.951-49.082h7.196l-37.088 53.88 39.118 56.831z"/></g></g></svg>
